<svg xmlns="http://www.w3.org/2000/svg" viewBox="0 0 60 60"><defs><style>.cls-1,.cls-3{fill:none;}.cls-2,.cls-3{stroke:#000;stroke-miterlimit:10;stroke-width:2px;}</style></defs><title>cart2</title><g id="Layer_2" data-name="Layer 2"><g id="Layer_1-2" data-name="Layer 1"><rect class="cls-1" width="60" height="60"/><line class="cls-2" x1="6.95" y1="17.5" x2="51.45" y2="18.5"/><path class="cls-3" d="M7.5,17.5c0,11.05,4.47,20,10,20"/><line class="cls-3" x1="17.5" y1="37.5" x2="50.5" y2="37.5"/><line class="cls-3" x1="51" y1="18.5" x2="50" y2="37.5"/><line class="cls-3" x1="15" y1="17.8" x2="15" y2="37.2"/><line class="cls-3" x1="11" y1="17.8" x2="11" y2="32"/><line class="cls-3" x1="19.55" y1="17.75" x2="19.55" y2="37.25"/><line class="cls-3" x1="24.05" y1="18" x2="24.05" y2="38"/><line class="cls-3" x1="28.5" y1="18" x2="28.5" y2="38"/><line class="cls-3" x1="28.55" y1="18" x2="28.55" y2="37"/><line class="cls-3" x1="33.05" y1="18" x2="33.05" y2="38"/><line class="cls-3" x1="37.55" y1="18.3" x2="37.55" y2="37.1"/><line class="cls-3" x1="42.05" y1="18.25" x2="42.05" y2="37.75"/><line class="cls-3" x1="46.55" y1="18.5" x2="46.5" y2="37.5"/><path class="cls-3" d="M47,38c0,3.87-1.79,7-4,7"/><line class="cls-3" x1="43" y1="45" x2="14" y2="46"/><circle class="cls-3" cx="18.5" cy="48.5" r="2.5"/><circle class="cls-3" cx="41.5" cy="48.5" r="2.5"/><line class="cls-3" x1="42" y1="46" x2="43" y2="45"/><line class="cls-3" x1="41" y1="46" x2="39" y2="45.1"/><path class="cls-3" d="M51,19c0-3.87,1.79-7,4-7"/></g></g></svg>