<svg xmlns="http://www.w3.org/2000/svg" viewBox="0 0 61 61"><defs><style>.cls-1{fill:#fff;stroke:#999;}.cls-1,.cls-2{stroke-miterlimit:10;}.cls-2,.cls-3{fill:#999;}.cls-2{stroke:#000;}</style></defs><title>magnifier2</title><g id="Layer_2" data-name="Layer 2"><g id="Layer_1-2" data-name="Layer 1"><rect class="cls-1" x="0.5" y="0.5" width="60" height="60" rx="12" ry="12"/><path class="cls-2" d="M51.51,53.57h0a1.42,1.42,0,0,1-2.24,0L34.76,36.33a2.12,2.12,0,0,1,0-2.65h0a1.41,1.41,0,0,1,2.23,0L51.51,50.92A2.15,2.15,0,0,1,51.51,53.57Z"/><path class="cls-3" d="M27,39.84C19.82,39.84,14,32.92,14,24.41S19.82,9,27,9s12.92,6.92,12.92,15.44S34.07,39.84,27,39.84Zm.39-27.18C21.63,12.66,17,17.72,17,23.94s4.66,11.28,10.37,11.28,10.37-5.06,10.37-11.28S33.06,12.66,27.34,12.66Z"/><path d="M27,9.47c6.85,0,12.42,6.7,12.42,14.94S33.8,39.34,27,39.34s-12.42-6.7-12.42-14.93S20.1,9.47,27,9.47m.39,26.25c6,0,10.87-5.29,10.87-11.78S33.33,12.16,27.34,12.16,16.47,17.44,16.47,23.94s4.88,11.78,10.87,11.78M27,8.47c-7.41,0-13.42,7.13-13.42,15.94s6,15.93,13.42,15.93,13.42-7.13,13.42-15.93S34.36,8.47,27,8.47Zm.39,26.25c-5.45,0-9.87-4.83-9.87-10.78s4.42-10.78,9.87-10.78S37.21,18,37.21,23.94s-4.42,10.78-9.87,10.78Z"/><path class="cls-3" d="M35.93,36.69a1.5,1.5,0,0,0,0-3,1.5,1.5,0,0,0,0,3Z"/><path class="cls-3" d="M36,36.45a1.5,1.5,0,0,0,0-3,1.5,1.5,0,0,0,0,3Z"/><path class="cls-3" d="M35.53,36.57a1.5,1.5,0,0,0,0-3,1.5,1.5,0,0,0,0,3Z"/><path class="cls-3" d="M34.74,36.45a1.5,1.5,0,0,0,0-3,1.5,1.5,0,0,0,0,3Z"/><path class="cls-3" d="M35.73,35.28a1.5,1.5,0,0,0,0-3,1.5,1.5,0,0,0,0,3Z"/><path class="cls-3" d="M36.22,37a1.5,1.5,0,0,0,0-3,1.5,1.5,0,0,0,0,3Z"/></g></g></svg>